<svg xmlns="http://www.w3.org/2000/svg" height="300" width="300" fill="#fff" viewBox="0 0 100 100"><path fill="none" d="M44.053 63.596c-6.313 0-11.45-5.137-11.45-11.451 0-5.661 4.13-10.377 9.535-11.291a16.032 16.032 0 011.083-5.752 15.094 15.094 0 00-7.66-2.075c-8.399 0-15.233 6.833-15.233 15.233 0 .565.041 1.161.129 1.877a1.918 1.918 0 01-2.114 2.139c-5.213.002-9.512 4.301-9.512 9.585 0 5.284 4.299 9.582 9.583 9.582h50.963a6.245 6.245 0 006.239-6.238c0-.552-.079-1.088-.217-1.609H44.053z"/><path fill="none" d="M86.404 50.07a1.916 1.916 0 01-1.923-2.667 8.225 8.225 0 00.682-3.291c0-4.581-3.727-8.307-8.308-8.307a8.276 8.276 0 00-4.406 1.276 1.914 1.914 0 01-2.789-.893 12.27 12.27 0 00-11.382-7.631c-6.787 0-12.308 5.521-12.308 12.308 0 .45.034.933.105 1.518a1.92 1.92 0 01-.475 1.51 1.846 1.846 0 01-1.448.637c-.04 0-.136-.005-.175-.008-4.123.002-7.542 3.421-7.542 7.624s3.418 7.621 7.62 7.621h42.269a4.854 4.854 0 004.848-4.848 4.858 4.858 0 00-4.768-4.849z"/><path d="M88.738 46.582c.167-.808.252-1.633.252-2.47 0-6.692-5.445-12.137-12.137-12.137a12.05 12.05 0 00-4.559.896 16.078 16.078 0 00-14.018-8.144c-5.501 0-10.362 2.771-13.277 6.985a18.889 18.889 0 00-9.439-2.515c-10.511 0-19.063 8.552-19.063 19.063 0 .107.001.215.004.323C10.007 49.514 5 55.114 5 61.861c0 7.395 6.017 13.412 13.413 13.412h50.963c5.552 0 10.069-4.517 10.069-10.068 0-.546-.058-1.08-.143-1.609h7.02c4.785 0 8.678-3.892 8.678-8.678 0-3.947-2.649-7.287-6.262-8.336zM69.376 71.443H18.413c-5.284 0-9.583-4.298-9.583-9.582 0-5.284 4.299-9.583 9.512-9.585.042.003.153.009.195.009.592-.004 1.078-.227 1.446-.639.367-.411.54-.962.473-1.509a15.192 15.192 0 01-.129-1.877c0-8.4 6.834-15.233 15.233-15.233 2.726 0 5.343.719 7.66 2.075a16.045 16.045 0 00-1.083 5.752c-5.405.914-9.535 5.629-9.535 11.291 0 6.314 5.137 11.451 11.45 11.451h31.345c.139.521.217 1.057.217 1.609a6.243 6.243 0 01-6.238 6.238zm16.946-11.677H44.053c-4.202 0-7.62-3.419-7.62-7.621s3.418-7.621 7.542-7.624c.039.003.135.008.175.008a1.846 1.846 0 001.448-.637 1.92 1.92 0 00.475-1.51 12.499 12.499 0 01-.105-1.518c0-6.787 5.521-12.308 12.308-12.308a12.27 12.27 0 0111.382 7.631 1.915 1.915 0 002.789.893 8.285 8.285 0 014.406-1.276c4.581 0 8.308 3.726 8.308 8.307a8.229 8.229 0 01-.682 3.291 1.917 1.917 0 001.923 2.667 4.854 4.854 0 014.767 4.848 4.852 4.852 0 01-4.847 4.849z"/></svg>