<svg xmlns="http://www.w3.org/2000/svg" height="300" width="300" fill="#fff" viewBox="0 0 100 100"><switch><g><path d="M26.6 55.5h43.1c9.7 0 17.5-7.9 17.5-17.5 0-7.8-5.1-14.6-12.5-16.8-3.1-8-10.8-13.4-19.5-13.4-7.3 0-14.1 3.9-17.9 10.1-6 .4-11 4.6-12.6 10.3-6.7.8-11.9 6.6-11.9 13.5 0 7.6 6.2 13.8 13.8 13.8zm0-20.7h.7c.9.1 1.9-.2 2.6-.8.7-.6 1.1-1.5 1.2-2.4.2-3.9 3.4-7 7.3-7h.7c1.4.1 2.8-.6 3.4-1.9 2.3-4.9 7.3-8.1 12.8-8.1 6.3 0 11.9 4.3 13.6 10.4.3 1.3 1.4 2.2 2.7 2.5 5.1.9 8.9 5.3 8.9 10.5 0 5.9-4.8 10.7-10.7 10.7H26.6c-3.8 0-6.9-3.1-6.9-6.9-.1-3.9 3-7 6.9-7zM50.4 85.4H14.7c-1.9 0-3.4 1.5-3.4 3.4s1.5 3.4 3.4 3.4h35.8c1.9 0 3.4-1.5 3.4-3.4 0-1.8-1.6-3.4-3.5-3.4zM86.5 85.4H64.1c-1.9 0-3.4 1.5-3.4 3.4s1.5 3.4 3.4 3.4h22.4c1.9 0 3.4-1.5 3.4-3.4 0-1.8-1.5-3.4-3.4-3.4zM94.1 73.2H34.4c-1.9 0-3.4 1.5-3.4 3.4s1.5 3.4 3.4 3.4h59.7c1.9 0 3.4-1.5 3.4-3.4s-1.5-3.4-3.4-3.4zM24.1 76.6c0-1.9-1.5-3.4-3.4-3.4H5.9c-1.9 0-3.4 1.5-3.4 3.4S4 80 5.9 80h14.8c1.9 0 3.4-1.5 3.4-3.4zM69.2 64.3c0 1.9 1.5 3.4 3.4 3.4h14.8c1.9 0 3.4-1.5 3.4-3.4s-1.5-3.4-3.4-3.4H72.6c-1.9 0-3.4 1.5-3.4 3.4zM12.6 67.7H59c1.9 0 3.4-1.5 3.4-3.4s-1.5-3.4-3.4-3.4H12.6c-1.9 0-3.4 1.5-3.4 3.4s1.5 3.4 3.4 3.4z"/></g></switch></svg>