<svg xmlns="http://www.w3.org/2000/svg" height="300" width="300" fill="#fff" viewBox="0 0 100 100"><path d="M43.6 54.8l-5.1-3V41.3l9.1 5.3v5.9c0 .6.4 1 1 1s1-.4 1-1v-4.8l4.6 2.7c.2.1.3.1.5.1.3 0 .7-.2.9-.5.3-.5.1-1.1-.4-1.4L50.6 46l4.1-2.4c.5-.3.6-.9.4-1.4-.3-.5-.9-.6-1.4-.4l-5.1 3-9.1-5.3 9.1-5.3 5.1 3c.2.1.3.1.5.1.3 0 .7-.2.9-.5.3-.5.1-1.1-.4-1.4L50.6 33l4.6-2.7c.5-.3.6-.9.4-1.4-.3-.5-.9-.6-1.4-.4l-4.6 2.7v-4.8c0-.6-.4-1-1-1s-1 .4-1 1v5.9l-9.1 5.3V27.3l5.1-3c.5-.3.6-.9.4-1.4-.3-.5-.9-.6-1.4-.4L38.5 25v-5.4c0-.6-.4-1-1-1s-1 .4-1 1V25l-4.1-2.4c-.5-.3-1.1-.1-1.4.4s-.1 1.1.4 1.4l5.1 3V38l-9.1-5.3v-5.9c0-.6-.4-1-1-1s-1 .4-1 1v4.8l-4.6-2.7c-.5-.3-1.1-.1-1.4.4-.3.5-.1 1.1.4 1.4l4.6 2.7-4.1 2.4c-.5.3-.6.9-.4 1.4.2.3.5.5.9.5.2 0 .3 0 .5-.1l5.1-3 9.1 5.3-9.1 5.3-5.1-3c-.5-.3-1.1-.1-1.4.4-.3.5-.1 1.1.4 1.4l4.1 2.4-4.6 2.7c-.5.3-.6.9-.4 1.4.2.3.5.5.9.5.2 0 .3 0 .5-.1l4.6-2.7V53c0 .6.4 1 1 1s1-.4 1-1v-5.9l9.1-5.3v10.6l-5.1 3c-.5.3-.6.9-.4 1.4.2.3.5.5.9.5.2 0 .3 0 .5-.1l4.1-2.4v5.4c0 .6.4 1 1 1s1-.4 1-1v-5.4l4.1 2.4c.2.1.3.1.5.1.3 0 .7-.2.9-.5.3-1.1.1-1.7-.4-2zM63.3 75.3l-5.9-3.4 5.9-3.4c.5-.3.6-.9.4-1.4-.3-.5-.9-.6-1.4-.4l-5.9 3.4v-6.8c0-.6-.4-1-1-1s-1 .4-1 1v6.8l-5.9-3.4c-.5-.3-1.1-.1-1.4.4-.3.5-.1 1.1.4 1.4l5.9 3.4-5.9 3.4c-.5.3-.6.9-.4 1.4.2.3.5.5.9.5.2 0 .3 0 .5-.1l5.9-3.4v6.8c0 .6.4 1 1 1s1-.4 1-1v-6.8l5.9 3.4c.2.1.3.1.5.1.3 0 .7-.2.9-.5.3-.5.1-1.1-.4-1.4zM80.3 52.8l-5.9-3.4 5.9-3.4c.5-.3.6-.9.4-1.4-.3-.5-.9-.6-1.4-.4l-5.9 3.4v-6.8c0-.6-.4-1-1-1s-1 .4-1 1v6.8l-5.9-3.4c-.5-.3-1.1-.1-1.4.4-.3.5-.1 1.1.4 1.4l5.9 3.4-5.9 3.4c-.5.3-.6.9-.4 1.4.2.3.5.5.9.5.2 0 .3 0 .5-.1l5.9-3.4V58c0 .6.4 1 1 1s1-.4 1-1v-6.8l5.9 3.4c.2.1.3.1.5.1.3 0 .7-.2.9-.5.2-.5.1-1.1-.4-1.4z"/></svg>