
<svg id="Layer_1" xmlns="http://www.w3.org/2000/svg" xmlns:xlink="http://www.w3.org/1999/xlink" width="84" height="24" viewBox="0 0 211.122 60.482"><style>.st0{clip-path:url(#SVGID_2_);fill:#1d1d1b}</style><defs><path id="SVGID_1_" d="M0 0h211.122v60.482H0z"/></defs><clipPath id="SVGID_2_"><use xlink:href="#SVGID_1_" overflow="visible"/></clipPath><path class="st0" d="M187.413 8.567c-.28-.048-.568-.095-.86-.14l-.346-.05a34.838 34.838 0 00-1.484-.17c-.34-.033-.68-.056-1.018-.076-.603-.037-1.2-.052-1.774-.052-.262 0-.412.005-.668.008-.483.008-.952.03-1.415.06-.264.017-.523.04-.78.062-.38.034-.756.075-1.125.122l-.31.042-.342.05-.423.067a25.799 25.799 0 00-1.293.243c-1.514.32-2.914.746-4.208 1.25-.666.26-1.31.54-1.917.84a23.71 23.71 0 00-4.072 2.508 22.524 22.524 0 00-2.144 1.873 20.334 20.334 0 00-1.541 1.697c-.265.328-.526.663-.776 1.01a22.598 22.598 0 00-.886 1.33 21.338 21.338 0 00-1.727 3.497 21.882 21.882 0 00-1.267 4.99 24.082 24.082 0 00-.208 3.057c0 .342.003.68.025 1.014.023.35.05.694.09 1.036l.025.24a19.357 19.357 0 00.518 2.63 21.167 21.167 0 00.898 2.642 22.223 22.223 0 002.228 4.082c.248.36.507.707.762 1.037.27.35.55.677.82.99.34.39.683.748 1.013 1.077l.18.175c.274.264.57.55.913.84.233.198.474.406.737.612.245.192.497.39.768.583a22.514 22.514 0 002.227 1.426 24.232 24.232 0 005.237 2.169c.734.208 1.507.395 2.318.553a30.831 30.831 0 005.311.542c.172.003.347.007.52.007a44.9 44.9 0 003.733-.146l.226-.02a37.788 37.788 0 003.21-.427 34.428 34.428 0 003.732-.899c.41-.123.807-.254 1.18-.382l.364-.127c.18-.064.427-.152.718-.266.384-.15.848-.333 1.375-.558.313-.135.655-.288 1.004-.45.31-.14.64-.3.968-.46.14-.068.28-.132.42-.203v-8.19c-.094.06-.196.12-.293.178l-.562.34c-.56.34-1.1.658-1.643.954a33.031 33.031 0 01-4.674 2.109 29.152 29.152 0 01-5.376 1.384 25.284 25.284 0 01-2.728.268c-.31.013-.6.02-.87.02-.58 0-1.178-.015-1.787-.058a22.37 22.37 0 01-2.172-.254 20.265 20.265 0 01-3.537-.92c-.17-.062-.343-.132-.514-.2a17.956 17.956 0 01-.903-.388c-.398-.19-.797-.393-1.185-.612a17.442 17.442 0 01-1.156-.727 16.06 16.06 0 01-.708-.52 16.74 16.74 0 01-.64-.53l-.272-.244-.135-.124-.08-.076-.1-.095a16.166 16.166 0 01-1.012-1.104 13.616 13.616 0 01-1.731-2.674 14.315 14.315 0 01-.789-1.954 15.304 15.304 0 01-.694-3.924c-.015-.328-.02-.612-.02-.84a16.352 16.352 0 01.163-2.256c.06-.41.144-.85.252-1.31a14.241 14.241 0 01.568-1.824c.075-.203.162-.405.25-.61.12-.277.254-.553.398-.835.108-.21.228-.42.35-.633a13.956 13.956 0 011.308-1.883c.173-.21.357-.425.548-.63.097-.102.193-.21.294-.312a16.83 16.83 0 014.938-3.42c.27-.123.548-.234.822-.344a18.601 18.601 0 011.749-.584 19.798 19.798 0 011.73-.393c.317-.06.633-.106.947-.15a22.42 22.42 0 012.695-.178c.193 0 .38-.002.57.003.423.01.838.024 1.242.05.282.02.556.037.826.062a28.319 28.319 0 012.696.394c.59.117 1.126.248 1.607.374.315.082.603.168.867.246a25.321 25.321 0 011.704.565c.403.143.795.302 1.184.457.52.208 1.016.435 1.494.65.397.178.772.364 1.127.537.292.142.563.286.82.418.448.23.826.442 1.138.61l.835.455v-8.04s-.503-.208-1.37-.534a61.13 61.13 0 00-1.348-.5c-.287-.1-.586-.21-.907-.317-.254-.086-.516-.18-.79-.267-.306-.097-.623-.203-.952-.302-.235-.07-.48-.145-.724-.215l-.22-.062a41.35 41.35 0 00-1.616-.429l-.58-.14c-.318-.072-.64-.143-.966-.21-.33-.073-.668-.134-1.007-.196zM147.208.21h63.818v60.058h-63.818V.21zM98.16 33.33v11.8h7.663s.153-.004.404-.014c.258-.01.623-.023 1.065-.06.836-.078 1.928-.23 2.99-.59.963-.324 1.9-.81 2.615-1.526.275-.275.503-.562.687-.852.6-.946.753-1.91.786-2.455.018-.236.017-.375.017-.375s.004-.106 0-.29a5.572 5.572 0 00-.158-1.142 4.74 4.74 0 00-.896-1.803 3.981 3.981 0 00-.297-.333 6.047 6.047 0 00-.688-.598 7.36 7.36 0 00-1.42-.798 10.96 10.96 0 00-2.306-.68 15.15 15.15 0 00-1.362-.19c-.29-.03-.58-.05-.883-.067a12.633 12.633 0 00-.81-.028c-2.72 0-7.41-.003-7.41-.003zm0-17.945v11.19h3.71s.248 0 .575-.01c.256-.008.562-.026.835-.04.763-.057 1.82-.163 2.876-.458.206-.058.413-.122.616-.194.828-.295 1.622-.726 2.24-1.333.49-.482.815-1.02 1.03-1.542.262-.64.354-1.253.392-1.687.034-.387.032-.633.032-.633s.008-.185-.008-.475c-.026-.488-.127-1.28-.51-2.043a4.107 4.107 0 00-.786-1.06 4.912 4.912 0 00-1.468-.968c-1.045-.46-2.24-.644-3.247-.71-.438-.03-.837-.037-1.177-.037h-5.11z"/><path class="st0" d="M90.413 8.632v43.253h16.283s7.94.22 12.324-4.166c3.568-3.568 3.312-7.697 3.312-7.697s.257-4.31-3.047-7.616c-2.815-2.814-6.41-3.564-6.41-3.564s1.624-.762 2.872-2.01c.584-.585 2.662-2.462 2.662-7.018 0-4.59-3.057-7.23-3.057-7.23s-3.345-3.954-10.9-3.954h-14.04v.002zM73.673.21h63.817v60.058H73.672V.21zM24.625 33.33v11.8h7.663s.153-.004.404-.014c.26-.01.623-.023 1.065-.06.835-.078 1.928-.23 2.99-.59.963-.324 1.9-.81 2.614-1.526a4.8 4.8 0 00.687-.852c.602-.946.753-1.91.787-2.455.018-.236.016-.375.016-.375s.004-.106 0-.29a5.485 5.485 0 00-.157-1.142 4.736 4.736 0 00-.895-1.803 3.981 3.981 0 00-.297-.333 6.036 6.036 0 00-.687-.598 7.36 7.36 0 00-1.42-.798 10.925 10.925 0 00-2.306-.68 15.1 15.1 0 00-1.362-.19c-.29-.03-.58-.05-.883-.067a12.633 12.633 0 00-.81-.028c-2.718 0-7.407-.003-7.407-.003zm0-17.945v11.19h3.71s.248 0 .575-.01c.257-.008.562-.026.834-.04.763-.057 1.82-.163 2.876-.458.206-.058.413-.122.616-.194.828-.295 1.622-.726 2.24-1.333.49-.482.814-1.02 1.028-1.542.263-.64.355-1.253.393-1.687.034-.387.032-.633.032-.633s.007-.185-.008-.475c-.026-.488-.128-1.28-.51-2.043a4.107 4.107 0 00-.786-1.06 4.912 4.912 0 00-1.468-.968c-1.044-.46-2.24-.644-3.247-.71a17.07 17.07 0 00-1.176-.037h-5.11z"/><path class="st0" d="M16.878 8.632v43.253H33.16s7.94.22 12.324-4.166c3.57-3.568 3.312-7.697 3.312-7.697s.258-4.31-3.046-7.616c-2.815-2.814-6.41-3.564-6.41-3.564s1.625-.762 2.872-2.01c.583-.585 2.662-2.462 2.662-7.018 0-4.59-3.055-7.23-3.055-7.23S38.473 8.63 30.917 8.63h-14.04v.002zM.138.21h63.816v60.058H.137V.21z"/></svg>