<svg xmlns="http://www.w3.org/2000/svg" height="300" width="300" fill="#fff" baseProfile="basic" viewBox="0 0 100 100"><path d="M50 60c-5.51 0-10-4.49-10-10s4.49-10 10-10 10 4.49 10 10-4.49 10-10 10zm0-18c-4.41 0-8 3.59-8 8s3.59 8 8 8 8-3.59 8-8-3.59-8-8-8zM50 38c-.55 0-1-.45-1-1v-6c0-.55.45-1 1-1s1 .45 1 1v6c0 .55-.45 1-1 1zM50 70c-.55 0-1-.45-1-1v-6c0-.55.45-1 1-1s1 .45 1 1v6c0 .55-.45 1-1 1zM37 51h-6c-.55 0-1-.45-1-1s.45-1 1-1h6c.55 0 1 .45 1 1s-.45 1-1 1zM69 51h-6c-.55 0-1-.45-1-1s.45-1 1-1h6c.55 0 1 .45 1 1s-.45 1-1 1zM59.19 41.81c-.26 0-.51-.1-.71-.29a.996.996 0 010-1.41l4.24-4.24a.996.996 0 111.41 1.41l-4.24 4.24c-.19.19-.44.29-.7.29zM36.56 64.44c-.26 0-.51-.1-.71-.29a.996.996 0 010-1.41l4.24-4.24a.996.996 0 111.41 1.41l-4.24 4.24c-.18.19-.44.29-.7.29zM40.81 41.81c-.26 0-.51-.1-.71-.29l-4.24-4.24a.996.996 0 111.41-1.41l4.24 4.24a.996.996 0 01-.7 1.7zM63.44 64.44c-.26 0-.51-.1-.71-.29l-4.24-4.24a.996.996 0 111.41-1.41l4.24 4.24a.996.996 0 01-.7 1.7z"/></svg>