<svg xmlns="http://www.w3.org/2000/svg" height="300" width="300" fill="#fff" viewBox="0 0 16 16"><path d="M7.5 16C3.364 16 0 12.636 0 8.5S3.364 1 7.5 1c.234 0 .467.011.701.045a.501.501 0 01.209.909 5.49 5.49 0 00-2.236 3.171.5.5 0 11-.968-.25 6.488 6.488 0 011.568-2.834A6.507 6.507 0 001 8.5C1 12.084 3.916 15 7.5 15a6.445 6.445 0 004.731-2.039A7.025 7.025 0 0111.5 13a6.415 6.415 0 01-4.293-1.628.5.5 0 11.667-.744A5.417 5.417 0 0011.5 12a5.29 5.29 0 001.791-.301.5.5 0 01.595.732A7.444 7.444 0 017.5 16z"/><path d="M12.5 10H7c-1.103 0-2-.897-2-2a2.002 2.002 0 012.167-1.994A3.032 3.032 0 0110 4c1.654 0 3 1.346 3 3l-.002.094A1.49 1.49 0 0114 8.5c0 .827-.673 1.5-1.5 1.5zM7 7a1.001 1.001 0 000 2h5.5a.499.499 0 00.138-.98c-.297.106-.687-.166-.688-.51v-.001-.001c0-.031.003-.07.009-.099A2.002 2.002 0 0010 5c-.974 0-1.823.722-1.977 1.679a.5.5 0 01-.695.379A.823.823 0 007 7z"/></svg>