<svg xmlns="http://www.w3.org/2000/svg" height="300" width="300" fill="#fff" data-name="Layer 1" viewBox="0 0 64 64"><path d="M28 42h-2.59l1.8-1.79-1.42-1.42-1.79 1.8V38h-2v2.59l-1.79-1.8-1.42 1.42 1.8 1.79H18v2h2.59l-1.8 1.79 1.42 1.42 1.79-1.8V48h2v-2.59l1.79 1.8 1.42-1.42-1.8-1.79H28v-2zM48 42h-2.59l1.8-1.79-1.42-1.42-1.79 1.8V38h-2v2.59l-1.79-1.8-1.42 1.42 1.8 1.79H38v2h2.59l-1.8 1.79 1.42 1.42 1.79-1.8V48h2v-2.59l1.79 1.8 1.42-1.42-1.8-1.79H48v-2zM48 56h-2.59l1.8-1.79-1.42-1.42-1.79 1.8V52h-2v2.59l-1.79-1.8-1.42 1.42 1.8 1.79H38v2h2.59l-1.8 1.79 1.42 1.42 1.79-1.8V62h2v-2.59l1.79 1.8 1.42-1.42-1.8-1.79H48v-2zM28 56h-2.59l1.8-1.79-1.42-1.42-1.79 1.8V52h-2v2.59l-1.79-1.8-1.42 1.42 1.8 1.79H18v2h2.59l-1.8 1.79 1.42 1.42 1.79-1.8V62h2v-2.59l1.79 1.8 1.42-1.42-1.8-1.79H28v-2zM12 38h2v24h-2zM32 38h2v24h-2zM52 38h2v24h-2zM13 36h35c7.57-.26 14-6.21 14-13 0-5.81-4.58-10.62-11.22-11.88C49 5.8 42.91 2 36 2c-6.42 0-11.84 3.6-13.74 9-4.09.25-7.52 2.17-8.91 5H13C6.93 16 2 20.49 2 26s4.93 10 11 10zm0-18h.93l.75.05.26-.71c.91-2.5 4.23-4.29 8.07-4.34h.75l.2-.72C25.37 7.33 30.21 4 36 4c6.19 0 11.79 3.55 13 8.26l.17.63.65.1C55.83 13.9 60 18 60 23c0 5.74-5.51 10.78-12 11H13c-5 0-9-3.59-9-8s4-8 9-8z"/></svg>