<svg xmlns="http://www.w3.org/2000/svg" height="300" width="300" fill="#fff" viewBox="0 0 100 100"><path d="M74.425 71.688A32.391 32.391 0 0170 72c-17.645 0-32-14.355-32-32 0-8.503 3.301-16.51 9.295-22.546a3 3 0 00-2.54-5.085C26.082 14.949 12 31.127 12 50c0 20.953 17.047 38 38 38 10.198 0 19.773-3.986 26.963-11.226a3.003 3.003 0 00.556-3.454 2.993 2.993 0 00-3.094-1.632zM50 82c-17.645 0-32-14.355-32-32 0-12.948 7.869-24.389 19.287-29.359C33.839 26.442 32 33.083 32 40c0 19.57 14.872 35.733 33.907 37.781C61.119 80.534 55.674 82 50 82z"/><path d="M54.829 29.842l5.553 2.777 2.776 5.553a1.5 1.5 0 002.684 0l2.776-5.553 5.553-2.777a1.5 1.5 0 000-2.684l-5.553-2.775-2.776-5.553a1.5 1.5 0 00-2.684 0l-2.776 5.553-5.553 2.775a1.502 1.502 0 000 2.684zM89.171 48.158l-5.553-2.775-2.776-5.553a1.5 1.5 0 00-2.684 0l-2.776 5.553-5.553 2.775a1.502 1.502 0 000 2.684l5.553 2.777 2.776 5.553a1.5 1.5 0 002.684 0l2.776-5.553 5.553-2.777a1.5 1.5 0 000-2.684z"/></svg>