<svg xmlns="http://www.w3.org/2000/svg" height="300" width="300" fill="#fff" viewBox="0 0 59 56"><g fill-rule="evenodd"><path d="M37.15 30.881A15.994 15.994 0 0024 24c-6.173 0-11.599 3.517-14.26 8.733-.772 1.514-1.236 3.358-1.236 3.358C3.65 36.895 0 41.005 0 46c0 5.523 4.477 10 10 10h39a7 7 0 002.77-13.43c-.849-.367-1.77-.52-1.77-.52C50 36.477 45.523 32 40 32c-.684 0-2.017.204-2.017.204s-.28-.527-.833-1.323zm-2.163 4.314a2 2 0 002.69 1.27A6 6 0 0146 42c.001.22-.01.455-.034.724-.024.272-.045.453-.12 1.054l-.014.12a2 2 0 002.457 2.187A3 3 0 1149 52H10a6 6 0 01-6-6c0-3.329 2.707-6.013 6.172-6.052a2 2 0 001.956-1.709C12.987 32.391 18.028 28 24 28c4.766 0 9.02 2.803 10.946 7.073.016.045.034.1.04.122zM33 14c-3.187 0-6.181 1.25-8.41 3.44a2 2 0 002.804 2.853A7.966 7.966 0 0133 18a8 8 0 018 8 2 2 0 104 0c0-6.627-5.373-12-12-12zM35 2a2 2 0 10-4 0v6a2 2 0 104 0V2zM57 28a2 2 0 100-4h-6a2 2 0 100 4h6zM51.385 10.444a2 2 0 10-2.829-2.829l-4.242 4.243a2 2 0 102.828 2.828l4.243-4.242zM17.444 7.615a2 2 0 10-2.829 2.829l4.243 4.242a2 2 0 102.828-2.828l-4.242-4.243z"/></g></svg>