<svg xmlns="http://www.w3.org/2000/svg" height="300" width="300" fill="#fff" viewBox="0 0 100 100"><switch><g><path d="M5273.1 2400.1v-2c0-2.8-5-4-9.7-4s-9.7 1.3-9.7 4v2c0 1.8.7 3.6 2 4.9l5 4.9c.3.3.4.6.4 1v6.4c0 .4.2.7.6.8l2.9.9c.5.1 1-.2 1-.8v-7.2c0-.4.2-.7.4-1l5.1-5c1.3-1.3 2-3.1 2-4.9zm-9.7-.1c-4.8 0-7.4-1.3-7.5-1.8.1-.5 2.7-1.8 7.5-1.8s7.3 1.3 7.5 1.8c-.2.5-2.7 1.8-7.5 1.8z"/><path d="M5268.4 2410.3c-.6 0-1 .4-1 1s.4 1 1 1h4.3c.6 0 1-.4 1-1s-.4-1-1-1h-4.3zM5272.7 2413.7h-4.3c-.6 0-1 .4-1 1s.4 1 1 1h4.3c.6 0 1-.4 1-1s-.4-1-1-1zM5272.7 2417h-4.3c-.6 0-1 .4-1 1s.4 1 1 1h4.3c.6 0 1-.4 1-1 0-.5-.4-1-1-1z"/><g><path d="M89.1 36.3c.2-.9.2-1.7.2-2.6 0-8.2-6.6-14.8-14.8-14.8H74c-2.4-5.6-8.1-9.5-14.3-9.5-4.5 0-8.7 1.9-11.6 5.2-1.1-.3-2.3-.4-3.5-.4-5.9 0-11.3 3.2-14.1 8.2-.5 0-1-.1-1.5-.1-7.9 0-14.6 5.6-16.1 13.1-6.2 2-10.4 7.7-10.4 14.4 0 8.3 6.8 15.1 15.1 15.1h64.8c8.3 0 15.1-6.8 15.1-15.1 0-5.9-3.4-11.1-8.4-13.5zm-6.7 22.3H17.6c-4.9 0-8.8-4-8.8-8.8 0-4.4 3.1-8.1 7.5-8.8 1.5-.2 2.6-1.4 2.6-2.9.3-5.4 4.8-9.6 10.2-9.6 3.9 0 7.4 2.2 9.1 5.6.8 1.5 2.7 2.2 4.2 1.4 1.5-.8 2.2-2.7 1.4-4.2-1.6-3.1-4-5.5-6.9-7.1 1.9-2.4 4.8-3.8 7.9-3.8 1.2 0 2.4.2 3.6.6 1.4.5 2.9 0 3.7-1.2 1.7-2.6 4.6-4.2 7.8-4.2 4.3 0 8.2 3.1 9.1 7.3.2.8.7 1.5 1.4 2 .7.4 1.6.6 2.4.4.6-.1 1.2-.2 1.9-.2 4.7 0 8.5 3.8 8.5 8.5 0 .4-.1.7-.1 1.1h-.6c-5 0-9.7 2.5-12.5 6.7-1 1.4-.6 3.4.8 4.4 1.4 1 3.4.6 4.4-.8 1.7-2.4 4.4-3.9 7.3-3.9 4.9 0 8.8 4 8.8 8.8-.1 4.8-4 8.7-8.9 8.7zM25.9 69.6c-1.7 0-3.1 1.4-3.1 3.1V83c0 1.7 1.4 3.1 3.1 3.1S29 84.7 29 83V72.8c0-1.8-1.4-3.2-3.1-3.2zM38 69.6c-1.7 0-3.1 1.4-3.1 3.1v14.7c0 1.7 1.4 3.1 3.1 3.1s3.1-1.4 3.1-3.1V72.8c0-1.8-1.4-3.2-3.1-3.2zM50 69.6c-1.7 0-3.1 1.4-3.1 3.1V83c0 1.7 1.4 3.1 3.1 3.1s3.1-1.4 3.1-3.1V72.8c0-1.8-1.4-3.2-3.1-3.2zM62 69.6c-1.7 0-3.1 1.4-3.1 3.1v14.7c0 1.7 1.4 3.1 3.1 3.1s3.1-1.4 3.1-3.1V72.8c.1-1.8-1.3-3.2-3.1-3.2zM74.1 69.6c-1.7 0-3.1 1.4-3.1 3.1V83c0 1.7 1.4 3.1 3.1 3.1 1.7 0 3.1-1.4 3.1-3.1V72.8c0-1.8-1.4-3.2-3.1-3.2z"/></g></g></switch></svg>